<svg xmlns="http://www.w3.org/2000/svg" xmlns:xlink="http://www.w3.org/1999/xlink" width="20" height="16" viewBox="0 0 20 16">
    <defs>
        <path id="3tamsh5qea" d="M19.986 8.835l-.987-5.926C18.95 1.297 17.624 0 16 0c-.553 0-1 .448-1 1s.447 1 1 1c.552 0 1 .449 1 1 0 .055.005.11.014.165L17.82 8H12c-.553 0-1 .448-1 1v.19c-.312-.114-.65-.19-1-.19s-.688.076-1 .19V9c0-.552-.448-1-1-1H2.18l.806-4.835C2.996 3.11 3 3.055 3 3c0-.551.449-1 1-1 .552 0 1-.448 1-1s-.448-1-1-1C2.376 0 1.049 1.297 1.001 2.909L.013 8.835C.009 8.864 0 8.971 0 9v2.5C0 13.981 2.019 16 4.5 16S9 13.981 9 11.5v-.039c.311-.234.714-.461 1-.461.286 0 .689.227 1 .461v.039c0 2.481 2.019 4.5 4.5 4.5s4.5-2.019 4.5-4.5V9c0-.029-.009-.136-.014-.165zM7 11.5C7 12.879 5.878 14 4.5 14S2 12.879 2 11.5V10h5v1.5zm11 0c0 1.379-1.121 2.5-2.5 2.5S13 12.879 13 11.5V10h5v1.5z"/>
    </defs>
    <g fill="none" fill-rule="evenodd">
        <g>
            <g>
                <g>
                    <g transform="translate(-464 -1679) translate(64 1415) translate(400 264)">
                        <use fill="#1991FF" xlink:href="#3tamsh5qea"/>
                    </g>
                </g>
            </g>
        </g>
    </g>
</svg>
