<svg xmlns="http://www.w3.org/2000/svg" width="20" height="20" viewBox="0 0 20 20">
    <g fill="none" fill-rule="evenodd">
        <g fill="#1991FF">
            <g>
                <path d="M817 309c.552 0 1 .447 1 1v4.889c0 .552-.448 1-1 1h-8.364l-2.818 2.818c-.191.191-.446.293-.707.293-.129 0-.258-.024-.382-.076-.374-.154-.618-.52-.618-.924v-2.111H802c-.552 0-1-.448-1-1V303c0-.553.448-1 1-1h8c.552 0 1 .447 1 1 0 .553-.448 1-1 1h-7v9.889h2.111c.553 0 1 .447 1 1v.697l1.404-1.404c.188-.188.442-.293.707-.293H816V310c0-.553.448-1 1-1zm0-5c-.256 0-.512-.098-.707-.293-.391-.391-.391-1.023 0-1.414l2-2c.391-.391 1.023-.391 1.414 0s.391 1.023 0 1.414l-2 2c-.195.195-.451.293-.707.293zm3 1c.552 0 1 .447 1 1 0 .553-.448 1-1 1h-2c-.552 0-1-.447-1-1 0-.553.448-1 1-1h2zm-6-2c-.552 0-1-.447-1-1v-2c0-.553.448-1 1-1s1 .447 1 1v2c0 .553-.448 1-1 1zm-9 4c0-.553.448-1 1-1h7c.552 0 1 .447 1 1 0 .553-.448 1-1 1h-7c-.552 0-1-.447-1-1zm8 3c.552 0 1 .447 1 1 0 .553-.448 1-1 1h-7c-.552 0-1-.447-1-1 0-.553.448-1 1-1h7z" transform="translate(-865 -1714) translate(64 1415)"/>
            </g>
        </g>
    </g>
</svg>
