<svg xmlns="http://www.w3.org/2000/svg" xmlns:xlink="http://www.w3.org/1999/xlink" width="20" height="20" viewBox="0 0 20 20">
    <defs>
        <path id="2r0x0j59ga" d="M10 0C4.486 0 0 4.486 0 10c0 5.513 4.486 10 10 10s10-4.487 10-10c0-5.514-4.486-10-10-10m5.603 15.7C14.199 14.841 12.257 14 10 14c-2.256 0-4.199.842-5.604 1.7C2.919 14.248 2 12.23 2 10c0-4.411 3.589-8 8-8s8 3.589 8 8c0 2.23-.919 4.248-2.397 5.7m-9.454 1.309C7.218 16.457 8.537 16 10 16c1.464 0 2.782.457 3.851 1.008-1.144.63-2.456.992-3.851.992-1.396 0-2.708-.362-3.851-.991M10 9.999c-1.103 0-2-.896-2-2 0-1.102.897-2 2-2s2 .898 2 2c0 1.104-.897 2-2 2m0-6C7.794 4 6 5.795 6 8c0 2.207 1.794 4 4 4s4-1.793 4-4c0-2.205-1.794-4-4-4"/>
    </defs>
    <g fill="none" fill-rule="evenodd">
        <g>
            <g>
                <g>
                    <g transform="translate(-865 -1678) translate(64 1415) translate(801 262) translate(0 1)">
                        <use fill="#1991FF" xlink:href="#2r0x0j59ga"/>
                    </g>
                </g>
            </g>
        </g>
    </g>
</svg>
