<svg xmlns="http://www.w3.org/2000/svg" width="20" height="20" viewBox="0 0 20 20">
    <g fill="none" fill-rule="evenodd">
        <g fill="#1991FF">
            <g>
                <g>
                    <path d="M15.5 8.663c-.824 0-1.494.67-1.494 1.494s.67 1.494 1.494 1.494 1.494-.67 1.494-1.494-.67-1.494-1.494-1.494zM3.002 12H8c.553 0 1 .448 1 1s-.447 1-1 1H3.002C2.45 14 2 14.45 2 15.002v1.996C2 17.55 2.45 18 3.002 18h12.996c.553 0 1.002-.45 1.002-1.002s.447-1 1-1c.553 0 1 .448 1 1C19 18.653 17.653 20 15.998 20H3.002C1.347 20 0 18.653 0 16.998v-1.996c0-.768.29-1.47.767-2.002C.29 12.468 0 11.766 0 10.998V9.002C0 8.234.29 7.532.767 7 .29 6.468 0 5.766 0 4.998V3.002C0 1.347 1.347 0 3.002 0h12.996C17.653 0 19 1.347 19 3.002c0 .552-.447 1-1 1-.553 0-1-.448-1-1S16.551 2 15.998 2H3.002C2.45 2 2 2.45 2 3.002v1.996C2 5.55 2.45 6 3.002 6H8c.553 0 1 .448 1 1s-.447 1-1 1H3.002C2.45 8 2 8.45 2 9.002v1.996C2 11.55 2.45 12 3.002 12zm9.141-2.814l-.685-.442c-.464-.299-.598-.918-.299-1.382.3-.465.918-.598 1.383-.299l.685.442c.366-.315.799-.555 1.273-.697V6c0-.552.447-1 1-1 .553 0 1 .448 1 1v.808c.474.142.907.382 1.273.697l.685-.442c.465-.298 1.083-.166 1.383.3.299.463.165 1.082-.3 1.381l-.684.442c.09.308.137.634.137.97 0 .337-.048.663-.137.971l.685.443c.464.299.598.918.3 1.382-.193.296-.515.458-.843.458-.186 0-.373-.051-.54-.16l-.686-.442c-.366.315-.798.555-1.273.697v.808c0 .553-.447 1-1 1-.553 0-1-.447-1-1v-.808c-.474-.142-.907-.382-1.273-.697l-.685.442c-.168.108-.355.16-.54.16-.329 0-.65-.162-.843-.458-.299-.464-.165-1.083.3-1.382l.684-.443c-.089-.308-.137-.634-.137-.97 0-.337.048-.663.137-.971zM6 4c0 .552-.448 1-1 1-.553 0-1-.448-1-1s.447-1 1-1c.552 0 1 .448 1 1zm0 6c0 .552-.448 1-1 1-.553 0-1-.448-1-1s.447-1 1-1c.552 0 1 .448 1 1zm0 6c0 .552-.448 1-1 1-.553 0-1-.448-1-1s.447-1 1-1c.552 0 1 .448 1 1z" transform="translate(-465 -1714) translate(64 1415) translate(401 299)"/>
                </g>
            </g>
        </g>
    </g>
</svg>
