<svg xmlns="http://www.w3.org/2000/svg" xmlns:xlink="http://www.w3.org/1999/xlink" width="20" height="20" viewBox="0 0 20 20">
    <defs>
        <path id="fk826eu0ca" d="M19.09 2.678c-.136-.405-.517-.678-.947-.678-.039 0-3.986-.022-7.692-1.893-.283-.142-.618-.142-.902 0C5.862 1.969 1.895 2 1.856 2c-.428 0-.81.273-.947.678-1.367 4.03-1.19 7.825.515 10.97 1.647 3.042 4.76 5.404 8.328 6.32.082.02.165.032.249.032.083 0 .167-.011.248-.032 3.567-.916 6.68-3.278 8.328-6.32 1.703-3.145 1.881-6.94.514-10.97m-6.797 4.615L9 10.585 7.706 9.293c-.391-.39-1.023-.39-1.415 0-.39.392-.39 1.024 0 1.415l2.001 2c.195.194.452.292.708.292.256 0 .512-.098.707-.293l4.002-4c.391-.39.391-1.022 0-1.413s-1.024-.391-1.415 0m4.523 5.404c-1.349 2.49-3.884 4.444-6.816 5.268-2.934-.824-5.469-2.778-6.818-5.268-1.343-2.48-1.541-5.485-.585-8.727 1.36-.088 4.383-.444 7.403-1.858 3.018 1.414 6.04 1.77 7.401 1.858.958 3.242.758 6.248-.585 8.727"/>
    </defs>
    <g fill="none" fill-rule="evenodd">
        <g>
            <g>
                <g transform="translate(-865 -1640) translate(64 1415) translate(801 225)">
                    <use fill="#1991FF" xlink:href="#fk826eu0ca"/>
                </g>
            </g>
        </g>
    </g>
</svg>
