<svg xmlns="http://www.w3.org/2000/svg" width="20" height="20" viewBox="0 0 20 20">
    <g fill="none" fill-rule="evenodd">
        <g fill="#1991FF">
            <g>
                <g>
                    <path d="M11 7c0-.552-.449-1-1-1H1c-.552 0-1-.447-1-1 0-.553.448-1 1-1h9c1.654 0 3 1.346 3 3v5.586l1.293-1.293c.391-.391 1.023-.391 1.414 0s.391 1.023 0 1.414l-3 3c-.195.195-.451.293-.707.293-.256 0-.512-.098-.707-.293l-3-3c-.391-.391-.391-1.023 0-1.414s1.023-.391 1.414 0L11 12.586V7zm8.707-2.707c.187.187.293.441.293.707v14c0 .553-.448 1-1 1H5c-.552 0-1-.447-1-1V9c0-.553.448-1 1-1s1 .447 1 1v9h12V5.414L14.586 2H5c-.552 0-1-.447-1-1 0-.553.448-1 1-1h10c.265 0 .52.106.707.293l4 4z" transform="translate(-462 -1635) translate(64 1415) translate(398 220)"/>
                </g>
            </g>
        </g>
    </g>
</svg>
