<svg xmlns="http://www.w3.org/2000/svg" xmlns:xlink="http://www.w3.org/1999/xlink" width="93" height="75" viewBox="0 0 93 75">
    <defs>
        <path id="2gohbejk0a" d="M14 24C5.032 24 .522 30.61.336 30.89c-.342.514-.428 1.156-.234 1.742l2 6C2.374 39.45 3.138 40 4 40h20c.86 0 1.624-.55 1.896-1.368l2-6c.196-.586.11-1.228-.232-1.742C27.476 30.61 22.966 24 14 24zm0-20c3.307 0 6 2.692 6 6s-2.693 6-6 6c-3.309 0-6-2.692-6-6s2.691-6 6-6m0 16c5.513 0 10-4.486 10-10S19.512 0 14 0C8.484 0 4 4.486 4 10s4.485 10 10 10m8.558 16H5.44l-1.202-3.608C5.482 30.984 8.738 28 14 28c5.274 0 8.518 2.978 9.762 4.388L22.558 36z"/>
    </defs>
    <g fill="none" fill-rule="evenodd">
        <g>
            <g>
                <g>
                    <path fill="#EDEDED" fill-rule="nonzero" d="M30.993 66c16.18 0 25.994-12.687 25.994-32.978v-.088C56.987 12.643 47.173 0 30.993 0S5 12.643 5 32.934v.088C5 53.312 14.814 66 30.993 66zm0-10.698c-7.957 0-12.51-8.267-12.51-22.28v-.088c0-14.014 4.553-22.236 12.51-22.236s12.51 8.222 12.51 22.236v.088c0 14.013-4.553 22.28-12.51 22.28zm61.397 9.593V1.105H79.128L62.64 12.555v11.847L78.907 13.35h.265v51.545H92.39z" transform="translate(-150 -1009) translate(66 1004) translate(84 5)"/>
                    <g transform="translate(-150 -1009) translate(66 1004) translate(84 5) translate(0 35)">
                        <g fill="#04D189" fill-rule="nonzero">
                            <path d="M16.602 6.083L10.768.667c-.235-.219-.541-.332-.85-.332-.826 0-1.251.703-1.251 1.248v3.75H2C1.078 5.333.333 6.08.333 7S1.078 8.667 2 8.667h6.667v3.75c0 .693.563 1.25 1.25 1.25.31 0 .615-.115.851-.334l5.834-5.416C16.855 7.68 17 7.347 17 7c0-.347-.145-.68-.398-.917z" transform="translate(25 15)"/>
                        </g>
                        <g>
                            <use fill="#04D189" xlink:href="#2gohbejk0a"/>
                        </g>
                        <circle cx="14" cy="10" r="6" fill="#FFF"/>
                    </g>
                </g>
            </g>
        </g>
    </g>
</svg>
