<svg xmlns="http://www.w3.org/2000/svg" width="122" height="75" viewBox="0 0 122 75">
    <g fill="none" fill-rule="evenodd">
        <g>
            <g>
                <g>
                    <g fill="#EDEDED" fill-rule="nonzero">
                        <path d="M25.993 66c16.18 0 25.994-12.687 25.994-32.978v-.088C51.987 12.643 42.173 0 25.993 0S0 12.643 0 32.934v.088C0 53.312 9.814 66 25.993 66zm0-10.698c-7.957 0-12.51-8.267-12.51-22.28v-.088c0-14.014 4.553-22.236 12.51-22.236s12.51 8.222 12.51 22.236v.088c0 14.013-4.553 22.28-12.51 22.28zm78.593 9.593v-10.61h-28.91v-.53l13.35-12.201c11.007-10.123 14.676-15.163 14.676-22.899v-.088C103.702 7.692 94.42 0 80.936 0 67.453 0 57.462 8.443 57.462 20.468v.353H69.84l.044-.398c.177-5.747 4.598-10.035 11.14-10.035 5.659 0 9.637 3.714 9.681 8.93v.089c0 4.42-1.724 7.559-9.946 15.25L58.214 55.745v9.15h46.372z" transform="translate(-437 -1009) translate(66 1004) translate(371 5) translate(17)"/>
                    </g>
                    <g>
                        <path fill="#FFF" d="M10 2h15.152l4.33 3.5c1.27-.214 2.11 1.83 2.518 6.134.409 4.304.409 11.093 0 20.366H10V2z" transform="translate(-437 -1009) translate(66 1004) translate(371 5) translate(0 40)"/>
                        <path fill="#04D189" d="M19.25 12.25c0-.966-.786-1.75-1.75-1.75H1.75C.784 10.5 0 9.718 0 8.75S.784 7 1.75 7H17.5c2.895 0 5.25 2.355 5.25 5.25v9.776l2.263-2.263c.684-.685 1.79-.685 2.474 0 .685.684.685 1.79 0 2.474l-5.25 5.25c-.341.341-.789.513-1.237.513-.448 0-.896-.172-1.237-.513l-5.25-5.25c-.684-.684-.684-1.79 0-2.474.684-.685 1.79-.685 2.474 0l2.263 2.262V12.25zm15.237-4.737c.328.327.513.771.513 1.237v24.5c0 .968-.784 1.75-1.75 1.75H8.75C7.784 35 7 34.218 7 33.25v-17.5c0-.968.784-1.75 1.75-1.75s1.75.782 1.75 1.75V31.5h21V9.474L25.526 3.5H8.75C7.784 3.5 7 2.718 7 1.75S7.784 0 8.75 0h17.5c.464 0 .91.185 1.237.513l7 7z" transform="translate(-437 -1009) translate(66 1004) translate(371 5) translate(0 40)"/>
                    </g>
                </g>
            </g>
        </g>
    </g>
</svg>
