<svg xmlns="http://www.w3.org/2000/svg" xmlns:xlink="http://www.w3.org/1999/xlink" width="126" height="79" viewBox="0 0 126 79">
    <defs>
        <path id="hhj09295ea" d="M20 0C8.972 0 0 8.972 0 20c0 3.456.9 6.84 2.608 9.848l-2.506 7.52c-.238.718-.052 1.51.484 2.046.38.38.892.586 1.414.586.212 0 .424-.034.632-.104l7.52-2.506C13.162 39.102 16.546 40 20 40c11.028 0 20-8.972 20-20S31.028 0 20 0m0 36c-3.016 0-5.97-.86-8.538-2.486-.324-.206-.696-.31-1.07-.31-.214 0-.426.032-.634.102l-4.596 1.532 1.532-4.598c.19-.57.114-1.196-.208-1.702C4.86 25.968 4 23.018 4 20c0-8.822 7.178-16 16-16s16 7.178 16 16-7.178 16-16 16m0-18c-1.104 0-2 .894-2 2 0 1.106.896 2 2 2s2-.894 2-2c0-1.106-.896-2-2-2m-8 0c-1.104 0-2 .894-2 2 0 1.106.896 2 2 2s2-.894 2-2c0-1.106-.896-2-2-2m16 0c-1.104 0-2 .894-2 2 0 1.106.896 2 2 2s2-.894 2-2c0-1.106-.896-2-2-2"/>
    </defs>
    <g fill="none" fill-rule="evenodd">
        <g>
            <g>
                <g>
                    <g fill="#EDEDED" fill-rule="nonzero">
                        <g>
                            <path d="M25.946 65.88c16.15 0 25.946-12.664 25.946-32.918v-.088C51.892 12.62 42.096 0 25.946 0 9.796 0 0 12.62 0 32.874v.088C0 53.216 9.796 65.88 25.946 65.88zm0-10.678c-7.943 0-12.488-8.252-12.488-22.24v-.088c0-13.988 4.545-22.195 12.488-22.195s12.488 8.207 12.488 22.195v.088c0 13.988-4.545 22.24-12.488 22.24zm56.3 10.678c14.87 0 24.754-7.678 24.754-19.062v-.088c0-8.65-6.178-14.12-15.62-15.003v-.265c7.457-1.544 13.281-6.707 13.281-14.65v-.088C104.661 6.707 95.836 0 82.113 0c-13.37 0-22.328 7.237-23.21 18.268l-.045.53h12.223l.044-.397c.53-4.943 4.766-8.164 10.988-8.164 6.266 0 9.928 3.09 9.928 8.252v.088c0 5.163-4.324 8.693-10.987 8.693H73.95v9.487h7.28c7.678 0 12.223 3.354 12.223 9.443v.088c0 5.207-4.412 8.87-11.252 8.87-6.884 0-11.384-3.398-11.958-7.943l-.088-.485H57.446l.044.573c.883 10.988 10.326 18.577 24.755 18.577z" transform="translate(-738 -1004) translate(66 1004) translate(672) translate(19)"/>
                        </g>
                    </g>
                    <g transform="translate(-738 -1004) translate(66 1004) translate(672) translate(0 39)">
                        <circle cx="20" cy="20" r="16.571" fill="#FFF"/>
                        <use fill="#04D189" xlink:href="#hhj09295ea"/>
                    </g>
                </g>
            </g>
        </g>
    </g>
</svg>
