<svg xmlns="http://www.w3.org/2000/svg" xmlns:xlink="http://www.w3.org/1999/xlink" width="127" height="74" viewBox="0 0 127 74">
    <defs>
        <path id="6a3faw0sua" d="M20 0C8.972 0 0 8.972 0 20s8.972 20 20 20 20-8.972 20-20S31.028 0 20 0m0 36c-8.822 0-16-7.178-16-16S11.178 4 20 4s16 7.178 16 16-7.178 16-16 16m-.047-22.001c.052.002 1.298.08 2.632 1.416.782.78 2.048.78 2.828 0 .782-.782.782-2.048 0-2.83-1.206-1.206-2.428-1.842-3.414-2.184v-.402c0-1.104-.894-2-2-2-1.104 0-2 .896-2 2v.37c-2.322.828-4 3.028-4 5.63 0 4.562 3.454 5.426 5.516 5.942 2.23.558 2.484.768 2.484 2.058 0 1.104-.896 2-1.952 2.002-.052-.002-1.3-.08-2.634-1.416-.78-.78-2.046-.78-2.828 0-.78.782-.78 2.048 0 2.83 1.208 1.206 2.43 1.842 3.414 2.184v.4c0 1.106.896 2 2 2 1.106 0 2-.894 2-2v-.368c2.324-.828 4-3.028 4-5.632 0-4.56-3.452-5.424-5.514-5.94-2.23-.558-2.486-.768-2.486-2.06 0-1.102.898-2 1.954-2"/>
    </defs>
    <g fill="none" fill-rule="evenodd">
        <g>
            <g>
                <g>
                    <path fill="#EDEDED" fill-rule="nonzero" d="M41.993 66c16.18 0 25.994-12.687 25.994-32.978v-.088C67.987 12.643 58.173 0 41.993 0S16 12.643 16 32.934v.088C16 53.312 25.814 66 41.993 66zm0-10.698c-7.957 0-12.51-8.267-12.51-22.28v-.088c0-14.014 4.553-22.236 12.51-22.236s12.51 8.222 12.51 22.236v.088c0 14.013-4.553 22.28-12.51 22.28zm75.764 9.593V53.18h8.4V42.526h-8.4V1.106H98.925L73.33 42.04v11.14h31.74v11.715h12.687zM105.335 42.88h-20.38v-.354l20.07-31.784h.31V42.88z" transform="translate(-1034 -1009) translate(66 1004) translate(968 5)"/>
                    <g transform="translate(-1034 -1009) translate(66 1004) translate(968 5) translate(0 34)">
                        <circle cx="20" cy="20" r="18" fill="#FFF"/>
                        <use fill="#04D189" xlink:href="#6a3faw0sua"/>
                    </g>
                </g>
            </g>
        </g>
    </g>
</svg>
