<svg xmlns="http://www.w3.org/2000/svg" width="172" height="48" viewBox="0 0 172 48">
    <defs>
        <linearGradient id="0o80sodvha" x1="110.316%" x2="-14.686%" y1="56.892%" y2="36.563%">
            <stop offset="0%" stop-color="#0AA4DD"/>
            <stop offset="21.062%" stop-color="#0378AD"/>
            <stop offset="46.709%" stop-color="#006194"/>
            <stop offset="100%" stop-color="#00E792"/>
        </linearGradient>
        <linearGradient id="ffhs8z3t7b" x1="50%" x2="50%" y1="0%" y2="100%">
            <stop offset="0%" stop-color="#00F198"/>
            <stop offset="100%" stop-color="#00DA8A"/>
        </linearGradient>
        <linearGradient id="5zs6o35a1c" x1="50%" x2="50%" y1="0%" y2="100%">
            <stop offset="0%" stop-color="#007BEE"/>
            <stop offset="100%" stop-color="#00AECA"/>
        </linearGradient>
    </defs>
    <g fill="none" fill-rule="evenodd">
        <g fill-rule="nonzero">
            <g>
                <g>
                    <g fill="#FFF">
                        <path stroke="#FFF" stroke-width=".5" d="M1.45 28.93l6.955 15.572h1.253l6.955-15.596v15.596h1.45V27.015h-2.114L9.02 42.562 2.09 27.015H0v17.487h1.45V28.931zm25.494 14.801c-2.998 0-5.16-2.313-5.16-5.472 0-3.184 2.162-5.473 5.16-5.473 2.925 0 5.16 2.314 5.16 5.473s-2.235 5.472-5.16 5.472zm5.16-9.03c-.958-1.964-2.899-3.208-5.283-3.208-3.71 0-6.39 2.836-6.39 6.766 0 3.905 2.68 6.741 6.39 6.741 2.384 0 4.325-1.244 5.284-3.184v2.686h1.352V31.99h-1.352v2.712zm4.336-2.71v12.511h1.376v-7.114c0-2.736 1.302-4.602 3.342-4.602.565 0 1.229.15 1.868.448v-1.318c-.565-.25-1.204-.398-1.794-.398-1.598 0-2.802.92-3.465 2.437V31.99H36.44zm8.365 12.511h1.376v-5.97l6.168 5.97h1.868l-6.857-6.616 6.636-5.896h-1.893l-5.922 5.274V26.269h-1.376v18.233zm10.6-7.04c.271-2.76 2.36-4.676 5.162-4.676 2.752 0 4.817 1.916 5.087 4.677H55.406zm-1.4.722c0 3.955 2.777 6.816 6.636 6.816 2.727 0 5.259-1.791 6.045-4.229l-1.327-.224c-.639 1.841-2.654 3.184-4.768 3.184-2.875 0-5.013-2.09-5.21-5.024h11.674v-.523c0-3.88-2.679-6.691-6.44-6.691-3.833 0-6.61 2.81-6.61 6.691zm15.976 3.483c0 2.015 1.204 3.333 3.048 3.333.614 0 1.351-.1 1.843-.274v-1.194c-.492.15-1.13.25-1.598.25-1.18-.026-1.941-.872-1.941-2.14v-8.458h3.318v-1.169h-3.318V29.13h-1.155l-.148 2.885h-2.162v1.17h2.113v8.482zm16.566-.647c0 2.313-2.053 3.98-4.878 3.98-3.043 0-5.216-1.915-5.216-4.552h1.304c0 1.915 1.642 3.283 3.912 3.283 2.077 0 3.574-1.119 3.574-2.612 0-1.703-1.999-2.133-3.635-2.363l-.18-.025c-2.488-.373-4.661-.845-4.661-3.457 0-2.19 1.956-3.781 4.54-3.781 2.85 0 4.974 1.766 4.974 4.204l-1.328-.025c0-1.692-1.545-2.886-3.646-2.886-1.811 0-3.236 1.045-3.236 2.513 0 1.281 1.083 1.742 2.986 2.059l.924.146c2.137.356 4.566.992 4.566 3.516z" transform="translate(-65 -31) translate(0 3) translate(65 28) translate(85 1)"/>
                        <path d="M7.921 0c4.494 0 7.77 2.62 7.916 6.26l.006.256h-3.881c.026-1.847-1.648-3.166-3.934-3.166-2.1 0-3.483.976-3.483 2.348 0 1.503 1.365 1.919 3.244 2.204l.238.035.798.109c3.668.422 7.47 1.213 7.47 5.54 0 3.851-3.217 6.516-8.028 6.516-4.704 0-8.113-2.75-8.262-6.57L0 13.268h4.014c0 2.031 1.834 3.482 4.386 3.482 2.18 0 3.535-1.081 3.535-2.585 0-1.554-1.582-1.945-3.554-2.215l-.238-.031-.594-.075C3.801 11.37.186 10.578.186 6.199.186 2.532 3.35 0 7.921 0zm13.233 6.7l2.606 9.475 2.481-9.474h3.475l2.655 9.553 2.58-9.553H38.7l-3.871 13.4h-4.715l-2.134-8.82-2.135 8.82H21.13l-3.847-13.4h3.871zm23.364 0v13.402h-4.423V6.7h4.423zm7.471-4.02v3.4h2.992v3.005h-2.992v5.719c0 1.133.67 1.898 1.754 1.898.3 0 .745-.055 1.138-.15l.229-.061v3.189c-.8.263-1.831.422-2.657.422-2.545 0-4.221-1.901-4.327-4.627l-.005-.276V9.085h-1.857V6.08h2.037l.439-3.4h3.25zm12.535 2.68c3.578 0 6.585 2.142 7.157 5.154l.045.268-3.849.48c-.357-1.469-1.759-2.537-3.325-2.537-2.007 0-3.574 1.683-3.574 4.006 0 2.323 1.54 4.006 3.574 4.006 1.544 0 2.84-.97 3.292-2.33l.061-.207 3.848.48c-.522 3.152-3.6 5.422-7.229 5.422-4.425 0-7.669-3.098-7.669-7.371 0-4.273 3.216-7.37 7.67-7.37zM77.534.893V8.35c.914-1.295 2.554-2.02 4.222-2.02C84.929 6.33 87 8.557 87 11.69v8.413h-4.034V12.49c0-1.605-.968-2.718-2.582-2.744-1.56 0-2.85 1.216-2.85 2.9v7.455h-4.035V.893h4.034zm-35.227.224c1.433 0 2.444.971 2.444 2.331 0 1.388-1.011 2.36-2.444 2.36s-2.444-.972-2.444-2.36c0-1.36 1.011-2.331 2.444-2.331z" transform="translate(-65 -31) translate(0 3) translate(65 28) translate(85 1)"/>
                    </g>
                    <g>
                        <path fill="url(#0o80sodvha)" d="M45.024 12.11l14.981.44c.233.007.417.202.411.434-.002.051-.012.102-.032.149l-9.119 22.26c-.137.336-.467.55-.83.54L14.68 34.927c-.241-.007-.431-.207-.425-.448.002-.088.031-.173.083-.245l7.928-10.938c5.266-7.264 13.783-11.45 22.76-11.186z" transform="translate(-65 -31) translate(0 3) translate(65 28) rotate(40 37.335 24.016)"/>
                        <path fill="url(#ffhs8z3t7b)" d="M32.556 1.726H75.125c.481 0 .871.39.871.873 0 .196-.066.386-.187.54l-5.002 6.362c-4.108 5.223-10.375 8.27-17.008 8.27H13.26c-.24 0-.435-.195-.435-.436 0-.1.034-.197.097-.274l7.776-9.655c2.894-3.593 7.252-5.68 11.858-5.68z" transform="translate(-65 -31) translate(0 3) translate(65 28)"/>
                        <path fill="url(#5zs6o35a1c)" d="M22.566 29.764h39.309c.24 0 .435.195.435.437 0 .094-.03.187-.088.262l-5.646 7.51c-3.887 5.169-9.969 8.209-16.425 8.209H.464c-.24 0-.435-.196-.435-.437 0-.097.032-.19.09-.267L5.9 37.973c3.987-5.177 10.142-8.21 16.666-8.21z" transform="translate(-65 -31) translate(0 3) translate(65 28)"/>
                    </g>
                </g>
            </g>
        </g>
    </g>
</svg>
