<svg xmlns="http://www.w3.org/2000/svg" width="113" height="32" viewBox="0 0 113 32">
    <defs>
        <linearGradient id="farlexze4a" x1="110.316%" x2="-14.686%" y1="56.892%" y2="36.563%">
            <stop offset="0%" stop-color="#0AA4DD"/>
            <stop offset="21.062%" stop-color="#0378AD"/>
            <stop offset="46.709%" stop-color="#006194"/>
            <stop offset="100%" stop-color="#00E792"/>
        </linearGradient>
        <linearGradient id="464olzsfcb" x1="50%" x2="50%" y1="0%" y2="100%">
            <stop offset="0%" stop-color="#00F198"/>
            <stop offset="100%" stop-color="#00DA8A"/>
        </linearGradient>
        <linearGradient id="pp3hsole2c" x1="50%" x2="50%" y1="0%" y2="100%">
            <stop offset="0%" stop-color="#007BEE"/>
            <stop offset="100%" stop-color="#00AECA"/>
        </linearGradient>
    </defs>
    <g fill="none" fill-rule="evenodd">
        <g fill-rule="nonzero">
            <g>
                <g>
                    <g fill="#212B36">
                        <path stroke="#212B36" stroke-width=".65" d="M.942 18.805l4.521 10.122h.815l4.52-10.138v10.138h.943V17.56h-1.374L5.862 27.665 1.358 17.56H0v11.367h.942V18.805zm16.572 9.62c-1.95 0-3.355-1.503-3.355-3.557 0-2.07 1.406-3.557 3.355-3.557 1.9 0 3.354 1.504 3.354 3.557 0 2.054-1.453 3.557-3.354 3.557zm3.354-5.869c-.623-1.277-1.885-2.086-3.434-2.086-2.412 0-4.153 1.844-4.153 4.398 0 2.539 1.74 4.382 4.153 4.382 1.55 0 2.811-.808 3.434-2.07v1.747h.879v-8.133h-.879v1.762zm2.818-1.762v8.133h.894v-4.625c0-1.778.847-2.99 2.173-2.99.367 0 .798.096 1.214.29v-.857c-.368-.161-.783-.259-1.166-.259-1.039 0-1.821.599-2.253 1.585v-1.277h-.862zm5.437 8.133h.895v-3.88l4.009 3.88h1.214l-4.457-4.301 4.313-3.832h-1.23l-3.85 3.427v-7.146h-.894v11.852zm6.89-4.576c.177-1.795 1.534-3.04 3.355-3.04 1.79 0 3.131 1.245 3.307 3.04h-6.661zm-.91.469c0 2.57 1.805 4.43 4.313 4.43 1.773 0 3.419-1.164 3.93-2.749l-.863-.145c-.415 1.196-1.725 2.07-3.099 2.07-1.869 0-3.258-1.359-3.386-3.267h7.588v-.34c0-2.522-1.742-4.349-4.186-4.349-2.492 0-4.297 1.827-4.297 4.35zm10.385 2.263c0 1.31.783 2.167 1.98 2.167.4 0 .88-.065 1.199-.178v-.776c-.32.097-.735.162-1.039.162-.766-.016-1.262-.566-1.262-1.39V21.57h2.157v-.76h-2.157v-1.876h-.75l-.096 1.876h-1.406v.76h1.374v5.513zm10.767-.42c0 1.504-1.334 2.587-3.17 2.587-1.978 0-3.39-1.245-3.39-2.959h.847c0 1.245 1.067 2.134 2.543 2.134 1.35 0 2.323-.727 2.323-1.697 0-1.107-1.3-1.387-2.363-1.536l-.117-.017c-1.617-.242-3.03-.55-3.03-2.247 0-1.423 1.272-2.458 2.951-2.458 1.853 0 3.234 1.148 3.234 2.733l-.863-.016c0-1.1-1.005-1.876-2.37-1.876-1.178 0-2.104.68-2.104 1.633 0 .833.704 1.132 1.941 1.339l.601.095c1.388.231 2.967.645 2.967 2.285z" transform="translate(-593 -1415) translate(64 1415) translate(529) translate(55.25 .65)"/>
                        <path d="M5.149 0c2.921 0 5.05 1.703 5.145 4.07l.004.165H7.775c.017-1.2-1.071-2.057-2.557-2.057-1.365 0-2.263.634-2.263 1.526 0 .977.886 1.247 2.108 1.432l.154.023.52.07c2.384.275 4.854.79 4.854 3.602 0 2.503-2.09 4.235-5.218 4.235-3.057 0-5.273-1.787-5.37-4.27L0 8.624h2.609c0 1.32 1.192 2.263 2.85 2.263 1.418 0 2.299-.703 2.299-1.68 0-1.01-1.028-1.265-2.31-1.44l-.155-.02-.386-.049C2.47 7.39.12 6.876.12 4.029.12 1.647 2.177 0 5.149 0zm8.601 4.355l1.694 6.159 1.613-6.159h2.258l1.726 6.21 1.678-6.21h2.435l-2.516 8.711h-3.065l-1.387-5.733-1.387 5.733h-3.065l-2.5-8.71h2.516zm15.187 0v8.711h-2.875v-8.71h2.875zm4.856-2.613v2.21h1.944v1.953h-1.944v3.718c0 .736.436 1.233 1.14 1.233.195 0 .484-.036.74-.097l.148-.04v2.073c-.52.171-1.19.274-1.726.274-1.655 0-2.745-1.235-2.813-3.007l-.004-.18V5.906h-1.206V3.952h1.324l.285-2.21h2.112zm8.148 1.742c2.325 0 4.28 1.393 4.652 3.35l.029.174-2.502.312c-.232-.954-1.143-1.649-2.161-1.649-1.305 0-2.323 1.094-2.323 2.604s1 2.604 2.323 2.604c1.003 0 1.845-.63 2.14-1.515l.04-.134 2.5.312c-.339 2.049-2.34 3.524-4.698 3.524-2.877 0-4.985-2.014-4.985-4.79 0-2.778 2.09-4.792 4.985-4.792zM50.397.581v4.846c.594-.842 1.66-1.313 2.744-1.313 2.063 0 3.409 1.447 3.409 3.483v5.469h-2.622V8.119c0-1.043-.63-1.767-1.678-1.784-1.014 0-1.853.791-1.853 1.885v4.846h-2.623V.581h2.623zM27.499.726c.932 0 1.59.631 1.59 1.515 0 .902-.658 1.534-1.59 1.534-.93 0-1.588-.632-1.588-1.534 0-.884.657-1.515 1.588-1.515z" transform="translate(-593 -1415) translate(64 1415) translate(529) translate(55.25 .65)"/>
                    </g>
                    <g>
                        <path fill="url(#farlexze4a)" d="M29.266 7.872l9.737.286c.152.004.271.13.267.282 0 .033-.008.066-.02.096l-5.928 14.47c-.089.218-.303.357-.539.35l-23.242-.653c-.156-.005-.28-.135-.276-.292.002-.057.02-.112.054-.159l5.154-7.11c3.422-4.721 8.958-7.442 14.793-7.27z" transform="translate(-593 -1415) translate(64 1415) translate(529) rotate(40 24.268 15.61)"/>
                        <path fill="url(#464olzsfcb)" d="M21.161 1.122h27.671c.312 0 .566.254.566.567 0 .128-.043.252-.122.352l-3.252 4.135c-2.67 3.395-6.743 5.376-11.055 5.376H8.62c-.156 0-.283-.128-.283-.284 0-.065.022-.128.063-.179l5.055-6.275c1.88-2.335 4.714-3.692 7.707-3.692z" transform="translate(-593 -1415) translate(64 1415) translate(529)"/>
                        <path fill="url(#pp3hsole2c)" d="M14.668 19.347h25.55c.157 0 .284.127.284.283 0 .062-.02.122-.058.171l-3.67 4.881c-2.526 3.36-6.48 5.336-10.676 5.336H.302c-.156 0-.283-.127-.283-.284 0-.063.02-.124.059-.173l3.757-4.879c2.592-3.365 6.592-5.335 10.833-5.335z" transform="translate(-593 -1415) translate(64 1415) translate(529)"/>
                    </g>
                </g>
            </g>
        </g>
    </g>
</svg>
