<svg xmlns="http://www.w3.org/2000/svg" width="274" height="28" viewBox="0 0 274 28">
    <g fill="none" fill-rule="evenodd">
        <g>
            <g>
                <g>
                    <g>
                        <path fill="#FFF" d="M104.152 13.487h1.657V10.49h2.198v2.997h1.984v1.644h-1.984v5.336c0 .232.01.432.029.6.02.167.064.309.135.425.07.116.176.203.317.26.142.059.334.088.579.088.154 0 .308-.003.462-.01.155-.006.309-.029.462-.067v1.701c-.243.026-.481.051-.712.077-.231.026-.47.04-.713.04-.579 0-1.045-.056-1.398-.165-.354-.11-.63-.271-.828-.484-.2-.212-.334-.48-.405-.802-.071-.322-.113-.69-.126-1.102V15.13h-1.657v-1.644zm-5.666 8.527c.488 0 .912-.103 1.272-.31.36-.205.655-.476.887-.812.231-.335.401-.712.51-1.13.11-.42.164-.848.164-1.286 0-.426-.055-.851-.164-1.277-.109-.425-.279-.802-.51-1.13-.232-.33-.527-.597-.887-.803-.36-.206-.784-.31-1.272-.31-.489 0-.912.104-1.272.31-.36.206-.655.474-.887.802-.231.33-.401.706-.51 1.131-.11.426-.164.851-.164 1.277 0 .438.054.867.164 1.285.109.42.279.796.51 1.131.232.336.527.607.887.813.36.206.783.309 1.272.309zm0 1.74c-.797 0-1.507-.132-2.13-.396s-1.15-.629-1.58-1.093c-.431-.464-.759-1.018-.983-1.663-.225-.644-.337-1.353-.337-2.126 0-.76.112-1.463.337-2.108.224-.644.552-1.199.983-1.663.43-.464.957-.828 1.58-1.092.623-.264 1.333-.397 2.13-.397.797 0 1.506.133 2.13.397.622.264 1.15.628 1.58 1.092.43.464.758 1.019.983 1.663.224.645.337 1.347.337 2.108 0 .773-.113 1.482-.337 2.126-.225.645-.552 1.2-.983 1.663-.43.464-.958.829-1.58 1.093-.624.264-1.333.396-2.13.396zm-8.924-.27h2.197V9.677h-2.197v13.805zm-4.16 0h2.197v-9.997h-2.197v9.996zm0-11.718h2.197V9.678h-2.197v2.088zm-3.874 6.729c0-.451-.058-.89-.174-1.315-.115-.425-.289-.802-.52-1.131-.231-.329-.52-.593-.867-.793-.347-.2-.746-.3-1.195-.3-.926 0-1.623.323-2.091.967-.47.645-.704 1.502-.704 2.572 0 .503.06.97.183 1.402.122.432.305.802.55 1.111.243.31.536.555.876.735.34.18.736.27 1.186.27.5 0 .925-.102 1.272-.308.347-.206.632-.474.857-.803.225-.329.386-.702.482-1.121.097-.42.145-.848.145-1.286zm-7.671-5.008h2.081v1.353h.039c.308-.58.739-.995 1.291-1.247.553-.25 1.15-.377 1.793-.377.783 0 1.468.14 2.052.416.585.277 1.07.658 1.455 1.14.386.484.675 1.048.868 1.693.192.644.289 1.334.289 2.069 0 .67-.087 1.321-.26 1.952-.174.632-.437 1.19-.79 1.673-.354.483-.8.87-1.34 1.16-.54.29-1.176.435-1.908.435-.321 0-.643-.029-.964-.087-.321-.058-.63-.152-.925-.28-.296-.129-.568-.293-.819-.493-.25-.2-.46-.435-.626-.706h-.039v4.988h-2.197V13.487zm-7.382 0h1.658V10.49h2.197v2.997h1.985v1.644H70.33v5.336c0 .232.01.432.029.6.02.167.064.309.135.425.07.116.176.203.318.26.141.059.334.088.578.088.154 0 .308-.003.463-.01.154-.006.308-.029.462-.067v1.701c-.244.026-.482.051-.713.077-.231.026-.47.04-.713.04-.578 0-1.044-.056-1.397-.165-.354-.11-.63-.271-.83-.484-.198-.212-.333-.48-.404-.802-.07-.322-.113-.69-.125-1.102V15.13h-1.658v-1.644zm-7.246 6.787c.064.644.308 1.096.732 1.353.424.258.931.387 1.523.387.205 0 .44-.016.703-.048.263-.032.51-.094.742-.184.231-.09.42-.222.569-.396.147-.174.215-.403.202-.687-.013-.283-.116-.515-.308-.696-.193-.18-.44-.325-.742-.435-.302-.11-.646-.203-1.031-.28-.386-.078-.778-.161-1.176-.252-.411-.09-.807-.2-1.186-.328-.379-.13-.72-.303-1.021-.522-.302-.22-.543-.5-.723-.842-.18-.341-.27-.763-.27-1.266 0-.541.132-.996.396-1.363.263-.367.597-.664 1.002-.89.405-.225.854-.383 1.349-.473.494-.09.967-.136 1.416-.136.514 0 1.006.055 1.475.165.469.11.893.287 1.272.532.379.245.694.564.944.957.251.393.408.867.473 1.42h-2.294c-.103-.528-.344-.882-.723-1.063-.379-.18-.813-.27-1.3-.27-.155 0-.338.012-.55.038-.212.026-.411.075-.597.145-.187.071-.344.174-.473.31-.128.135-.192.312-.192.531 0 .271.093.49.28.658.185.167.43.306.732.415.301.11.645.203 1.03.28.386.078.784.162 1.196.252.398.09.79.2 1.175.329.386.129.73.303 1.031.522.302.22.546.496.733.831.186.336.28.748.28 1.238 0 .593-.136 1.095-.406 1.508-.27.413-.62.748-1.05 1.005-.43.258-.91.445-1.436.561-.527.116-1.047.174-1.561.174-.63 0-1.211-.07-1.744-.213-.534-.141-.996-.357-1.388-.647-.392-.29-.7-.651-.925-1.083-.225-.432-.344-.944-.357-1.537h2.198zm-3.74 3.21h-2.158V22.09h-.038c-.27.503-.672.906-1.205 1.209-.533.302-1.076.454-1.629.454-1.31 0-2.258-.325-2.842-.976-.585-.651-.877-1.634-.877-2.949v-6.342h2.197v6.13c0 .876.167 1.495.5 1.856.335.36.804.54 1.408.54.462 0 .848-.07 1.156-.212.309-.141.56-.331.752-.57.193-.238.33-.525.414-.86.084-.336.126-.697.126-1.083v-5.8h2.197v9.995zm-15.922-9.997h2.062v1.934h.04c.063-.271.188-.535.375-.793.186-.258.411-.493.674-.706.264-.212.556-.383.877-.512.321-.129.649-.194.983-.194.257 0 .434.007.53.02.097.013.196.026.3.038v2.127c-.155-.025-.313-.048-.473-.067-.16-.02-.318-.03-.472-.03-.373 0-.723.075-1.05.223-.328.148-.614.367-.858.657-.245.29-.437.648-.579 1.073-.141.426-.212.916-.212 1.47v4.756h-2.197v-9.996zM28.91 9.678h11.14v2.088h-4.375v11.717h-2.409V11.766H28.91V9.678z" transform="translate(-65 -711) translate(65 711) translate(164)"/>
                        <path fill="#11AA73" d="M26.344 9.678L16.281 9.676 13.172 0.076 10.063 9.675 0 9.674 8.142 15.61 5.033 25.211 13.173 19.278 21.311 25.211 18.203 15.612 26.344 9.678" transform="translate(-65 -711) translate(65 711) translate(164)"/>
                    </g>
                    <path fill="#114728" d="M18.908 17.788L18.203 15.612 13.173 19.278 18.908 17.788" transform="translate(-65 -711) translate(65 711) translate(164)"/>
                </g>
                <g>
                    <g transform="translate(-65 -711) translate(65 711) translate(0 1)">
                        <rect width="24.725" height="25" fill="#11AA73" rx="1"/>
                        <g>
                            <g fill="#FFF">
                                <path d="M20.7 7.665L12.793 7.663 10.35 0.06 7.908 7.663 0 7.661 6.398 12.362 3.954 19.966 10.351 15.267 16.746 19.966 14.303 12.364 20.7 7.665" transform="translate(1.648 2.5)"/>
                            </g>
                            <path fill="#114728" d="M14.857 14.088L14.303 12.364 10.351 15.267 14.857 14.088" transform="translate(1.648 2.5)"/>
                        </g>
                    </g>
                    <g transform="translate(-65 -711) translate(65 711) translate(0 1) translate(31.319)">
                        <rect width="24.725" height="25" fill="#11AA73" rx="1"/>
                        <g>
                            <g fill="#FFF">
                                <path d="M20.7 7.665L12.793 7.663 10.35 0.06 7.908 7.663 0 7.661 6.398 12.362 3.954 19.966 10.351 15.267 16.746 19.966 14.303 12.364 20.7 7.665" transform="translate(1.648 2.5)"/>
                            </g>
                            <path fill="#114728" d="M14.857 14.088L14.303 12.364 10.351 15.267 14.857 14.088" transform="translate(1.648 2.5)"/>
                        </g>
                    </g>
                    <g transform="translate(-65 -711) translate(65 711) translate(0 1) translate(62.637)">
                        <rect width="24.725" height="25" fill="#11AA73" rx="1"/>
                        <g>
                            <g fill="#FFF">
                                <path d="M20.7 7.665L12.793 7.663 10.35 0.06 7.908 7.663 0 7.661 6.398 12.362 3.954 19.966 10.351 15.267 16.746 19.966 14.303 12.364 20.7 7.665" transform="translate(1.648 2.5)"/>
                            </g>
                            <path fill="#114728" d="M14.857 14.088L14.303 12.364 10.351 15.267 14.857 14.088" transform="translate(1.648 2.5)"/>
                        </g>
                    </g>
                    <g transform="translate(-65 -711) translate(65 711) translate(0 1) translate(93.956)">
                        <rect width="24.725" height="25" fill="#11AA73" rx="1"/>
                        <g>
                            <g fill="#FFF">
                                <path d="M20.7 7.665L12.793 7.663 10.35 0.06 7.908 7.663 0 7.661 6.398 12.362 3.954 19.966 10.351 15.267 16.746 19.966 14.303 12.364 20.7 7.665" transform="translate(1.648 2.5)"/>
                            </g>
                            <path fill="#114728" d="M14.857 14.088L14.303 12.364 10.351 15.267 14.857 14.088" transform="translate(1.648 2.5)"/>
                        </g>
                    </g>
                    <g transform="translate(-65 -711) translate(65 711) translate(0 1) translate(125.275)">
                        <rect width="24.725" height="25" fill="#11AA73" rx="1"/>
                        <g>
                            <g fill="#FFF">
                                <path d="M20.7 7.665L12.793 7.663 10.35 0.06 7.908 7.663 0 7.661 6.398 12.362 3.954 19.966 10.351 15.267 16.746 19.966 14.303 12.364 20.7 7.665" transform="translate(1.648 2.5)"/>
                            </g>
                            <path fill="#114728" d="M14.857 14.088L14.303 12.364 10.351 15.267 14.857 14.088" transform="translate(1.648 2.5)"/>
                        </g>
                    </g>
                </g>
            </g>
        </g>
    </g>
</svg>
